<svg width="91" height="89" viewBox="0 0 91 89" fill="none" xmlns="http://www.w3.org/2000/svg">
<path d="M0 5C0 2.23858 2.23858 0 5 0H86C88.7614 0 91 2.23858 91 5V59.9439C91 61.746 90.0303 63.4087 88.4618 64.2959L47.2897 87.5855C45.7413 88.4613 43.8441 88.4485 42.3077 87.5518L2.47971 64.3074C0.944149 63.4112 0 61.767 0 59.989V5Z" fill="#FFE600"/>
<path d="M67.7855 10.319C66.2261 10.7281 64.7664 11.6908 63.8706 12.9421C63.3397 13.6882 63.2402 14.2176 63.3397 15.4931C63.5056 17.6108 64.6005 18.8381 67.1219 19.7286C71.8994 21.4372 77.3405 18.9825 77.2741 15.1562C77.2409 11.5223 72.4634 9.0917 67.7855 10.319Z" fill="#0B87CD"/>
<path d="M41.0448 14.6267C36.7981 15.9262 30.5608 18.1884 30.1959 18.5493C29.0678 19.6082 30.6272 21.75 32.5183 21.75C32.9496 21.75 35.7033 20.9318 38.6228 19.9451C43.7985 18.1884 44.0307 18.1402 46.4858 18.1402C47.8792 18.1402 49.0073 18.2124 49.0073 18.3087C49.0073 18.405 46.4195 20.3783 43.2345 22.7126C36.9308 27.3091 36.7317 27.5498 37.2294 29.86C37.528 31.2799 38.3574 31.9056 44.1302 34.9137L48.3437 37.1518V42.6146C48.3437 45.6468 48.5096 48.5106 48.6755 48.9919C49.704 51.6391 54.382 52.1445 56.3062 49.8342C56.9366 49.1122 56.9698 48.5828 56.9698 41.8205C56.9698 33.4457 57.3679 34.4565 52.9885 32.074C51.4624 31.2317 49.9694 30.4135 49.6708 30.2451C49.2395 30.0044 50.1685 29.2103 55.9413 25.047C62.6762 20.1377 62.7094 20.1136 62.8753 18.9103C62.9416 18.2606 62.8421 17.322 62.643 16.8648C62.1454 15.7818 60.387 14.6267 58.7282 14.3139C57.9983 14.1695 54.2824 14.0491 50.1685 14.0491C43.3008 14.0732 42.77 14.0973 41.0448 14.6267Z" fill="#0B87CD"/>
<path d="M57.3016 26.6834L54.4815 28.7289H60.6193C67.321 28.7289 67.9514 28.6086 68.6149 27.3572C69.0131 26.5871 68.4491 25.2154 67.5865 24.8785C67.2547 24.7341 65.4299 24.6378 63.5389 24.6378H60.1216L57.3016 26.6834Z" fill="#0B87CD"/>
<path d="M31.9211 36.4298L28.338 39.077H23.2619C20.475 39.077 17.7876 39.1973 17.2568 39.3417C14.1382 40.184 13.4083 42.8071 15.8634 44.5158L16.8587 45.2137L23.5605 45.2859C28.9683 45.3581 30.4945 45.2859 31.5561 44.9971C32.5183 44.7324 34.343 43.5772 37.6607 41.1707L42.405 37.7053L39.3196 35.9245C37.6275 34.9137 36.0682 34.0474 35.8692 33.9511C35.6701 33.8789 33.9117 34.9619 31.9211 36.4298Z" fill="#0B87CD"/>
<path d="M20.9394 52.1685C19.8446 52.8424 19.6787 54.19 20.5745 54.912C20.8731 55.1526 22.6315 55.8746 24.4562 56.5003C27.044 57.4148 28.2384 57.6795 29.9636 57.7998C32.0869 57.9201 32.1201 57.9201 31.1912 58.2089C28.7361 58.9549 27.9066 61.4096 29.5987 62.8776C32.1865 65.0916 37.0635 63.8883 37.0635 61.0005C37.0635 59.725 36.4995 58.979 34.9402 58.3052C33.9117 57.8479 33.9449 57.8479 45.8554 57.8479C57.766 57.8479 57.7992 57.8479 56.7707 58.3052C55.2114 58.979 54.6474 59.725 54.6474 61.0005C54.6474 63.792 59.2922 65.0675 61.9795 62.9979C62.643 62.4925 62.7758 62.1315 62.7758 60.9764C62.7758 59.4362 62.2117 58.7383 60.4865 58.2089C59.5908 57.9442 59.6571 57.9201 61.7473 57.7998C63.4725 57.6795 64.6668 57.4148 67.2878 56.5003C69.1458 55.8505 70.8378 55.1286 71.1032 54.8638C71.7667 54.1419 71.6672 52.8664 70.9041 52.3129C69.6434 51.3984 68.7476 51.4466 65.3304 52.6498L62.1122 53.7568H45.8223H29.5655L26.48 52.6739C24.788 52.0723 23.0628 51.591 22.6315 51.591C22.2002 51.591 21.4371 51.8557 20.9394 52.1685Z" fill="#0B87CD"/>
</svg>
